<svg width="21" height="22" viewBox="0 0 21 22" fill="none" xmlns="http://www.w3.org/2000/svg">
<path d="M14.267 10.0441L14.2673 10.0441C14.9879 10.0432 15.6754 9.73435 16.1801 9.19086C16.6843 8.64786 16.9656 7.91462 16.9664 7.15261V7.15239C16.9664 6.58363 16.8099 6.02656 16.5152 5.55152C16.2204 5.07637 15.7998 4.70367 15.305 4.48294C14.8099 4.2621 14.2642 4.20403 13.7375 4.31685C13.211 4.42964 12.7295 4.7076 12.3531 5.11298C11.9768 5.51822 11.722 6.03279 11.6189 6.59094C11.5158 7.14906 11.5686 7.72771 11.7712 8.25426C11.9737 8.78088 12.3176 9.23333 12.7616 9.5528C13.2058 9.87241 13.7297 10.0441 14.267 10.0441ZM13.5507 5.97189C13.7641 5.8183 14.0133 5.7374 14.2669 5.73737C14.6065 5.73777 14.9354 5.88311 15.1804 6.14696C15.4259 6.4113 15.5663 6.77266 15.5667 7.15239C15.5667 7.43541 15.4887 7.711 15.344 7.9442C15.1994 8.17729 14.9953 8.3566 14.7594 8.46182C14.5238 8.56695 14.2654 8.59417 14.0163 8.54081C13.7671 8.48743 13.536 8.35521 13.3532 8.15829C13.1702 7.96122 13.0441 7.70841 12.9928 7.43114C12.9416 7.15384 12.968 6.86655 13.0682 6.60615C13.1683 6.34582 13.337 6.12566 13.5507 5.97189Z" fill="black" stroke="black" stroke-width="0.4"/>
<path d="M14.2668 16.3038L14.115 16.1268L9.54411 10.7982L9.53915 10.7924L9.53927 10.7923C9.47509 10.7115 9.41158 10.6301 9.34873 10.5483L14.2668 16.3038ZM14.2668 16.3038L14.4186 16.1268M14.2668 16.3038L14.4186 16.1268M14.4186 16.1268L18.9911 10.7962M14.4186 16.1268L19.1847 10.5485M19.1847 10.5485L19.0263 10.4264L19.1847 10.5485L19.1847 10.5485L19.1847 10.5485L19.1846 10.5486L19.1843 10.5491L19.1829 10.5509L19.1777 10.5577L19.1588 10.5821L19.1 10.6581C19.0586 10.7114 19.0075 10.7771 18.9911 10.7962M19.1847 10.5485L19.2051 10.522M19.1847 10.5485L19.2051 10.522M18.9911 10.7962L18.8394 10.6658L18.9912 10.7961L18.9911 10.7962ZM19.2051 10.522L19.2058 10.52M19.2051 10.522L19.2058 10.52M19.2058 10.52C20 9.47391 20.429 8.20031 20.427 6.89123M19.2058 10.52L20.427 6.89152C20.427 6.89142 20.427 6.89132 20.427 6.89123M20.427 6.89123C20.4269 5.27501 19.7774 3.72548 18.6219 2.58335C17.4665 1.44123 15.8999 0.8 14.2668 0.8C12.6338 0.8 11.0672 1.44123 9.91174 2.58335C8.7563 3.72548 8.10673 5.27501 8.10665 6.89123H20.427ZM18.9433 6.89152V6.89176C18.9445 7.89024 18.6145 8.86183 18.0035 9.65763L18.0021 9.65941L17.9977 9.66509L17.9828 9.68452L17.9366 9.74482C17.9025 9.78918 17.8687 9.83308 17.857 9.84768L14.2668 14.0334L10.6813 9.85335C10.6678 9.83653 10.6329 9.79123 10.598 9.74594L10.5511 9.68503L10.5352 9.66467L10.529 9.6569L10.5279 9.65559C9.91813 8.86014 9.58923 7.88942 9.59032 6.89174V6.89152C9.59032 5.66689 10.0824 4.49193 10.9592 3.62527C11.8361 2.75853 13.0258 2.27119 14.2668 2.27119C15.5079 2.27119 16.6976 2.75853 17.5744 3.62527C18.4512 4.49193 18.9433 5.66689 18.9433 6.89152Z" fill="black" stroke="black" stroke-width="0.4"/>
<path d="M3.49943 6.96791L3.49967 6.96791C4.21528 6.96705 4.90133 6.6824 5.40735 6.17639C5.91336 5.67038 6.19801 4.98432 6.19887 4.26872V4.26848C6.19887 3.73458 6.04055 3.21267 5.74393 2.76875C5.44731 2.32483 5.02572 1.97884 4.53246 1.77453C4.03921 1.57021 3.49644 1.51675 2.9728 1.62091C2.44916 1.72507 1.96817 1.98217 1.59065 2.35969C1.21312 2.73721 0.956028 3.21821 0.85187 3.74184C0.747712 4.26548 0.80117 4.80825 1.00548 5.30151C1.2098 5.79476 1.55579 6.21636 1.99971 6.51297C2.44363 6.80959 2.96554 6.96791 3.49943 6.96791ZM2.77738 3.18785C2.99111 3.04504 3.24239 2.96882 3.49943 2.96882V2.76882L3.49923 2.96882C3.84387 2.96916 4.1743 3.10622 4.41799 3.34992C4.66164 3.59357 4.7987 3.92391 4.79909 4.26848C4.79909 4.52553 4.72287 4.7768 4.58006 4.99053C4.43725 5.20426 4.23428 5.37084 3.99679 5.46921C3.75931 5.56758 3.49799 5.59331 3.24588 5.54317C2.99377 5.49302 2.7622 5.36924 2.58044 5.18748C2.39868 5.00572 2.27489 4.77414 2.22475 4.52203C2.1746 4.26992 2.20034 4.0086 2.29871 3.77112C2.39707 3.53364 2.56365 3.33066 2.77738 3.18785Z" fill="black" stroke="black" stroke-width="0.4"/>
<circle cx="1.15358" cy="1.15358" r="1.15358" transform="matrix(1 0 0 -1 2.53711 10.9978)" fill="black"/>
<circle cx="1.15358" cy="1.15358" r="1.15358" transform="matrix(1 0 0 -1 2.53711 14.4585)" fill="black"/>
<circle cx="1.15358" cy="1.15358" r="1.15358" transform="matrix(1 0 0 -1 2.53711 17.9192)" fill="black"/>
<circle cx="1.15358" cy="1.15358" r="1.15358" transform="matrix(1 0 0 -1 2.53711 21.3799)" fill="black"/>
<circle cx="1.15358" cy="1.15358" r="1.15358" transform="matrix(1 0 0 -1 6 21.3799)" fill="black"/>
<circle cx="1.15358" cy="1.15358" r="1.15358" transform="matrix(1 0 0 -1 9.45898 21.3799)" fill="black"/>
<circle cx="1.15358" cy="1.15358" r="1.15358" transform="matrix(1 0 0 -1 12.9199 21.3799)" fill="black"/>
</svg>
