<svg width="15" height="15" viewBox="0 0 15 15" fill="none" xmlns="http://www.w3.org/2000/svg">
<g clip-path="url(#clip0_106_587)">
<path d="M0.320117 7.41018C0.319766 8.67048 0.651641 9.90106 1.2827 10.9857L0.259766 14.6916L4.08195 13.6972C5.13912 14.2683 6.3236 14.5675 7.52727 14.5676H7.53043C11.504 14.5676 14.7385 11.3593 14.7402 7.41582C14.741 5.50495 13.9917 3.70809 12.6303 2.35623C11.2692 1.00449 9.45893 0.259661 7.53014 0.258789C3.55613 0.258789 0.321816 3.46693 0.320176 7.41018" fill="url(#paint0_linear_106_587)"/>
<path d="M0.0626953 7.40791C0.0622852 8.71355 0.406055 9.98814 1.05961 11.1116L0 14.9504L3.95924 13.9203C5.05014 14.5105 6.27838 14.8217 7.52818 14.8222H7.53141C11.6475 14.8222 14.9982 11.4984 15 7.41384C15.0007 5.4343 14.2245 3.57285 12.8145 2.17256C11.4043 0.772442 9.52928 0.000813953 7.53141 0C3.41461 0 0.0643359 3.32326 0.0626953 7.40791ZM2.42051 10.9181L2.27268 10.6853C1.65123 9.70483 1.32322 8.5718 1.32369 7.40837C1.32504 4.01331 4.10965 1.25116 7.53375 1.25116C9.19195 1.25186 10.7503 1.89326 11.9224 3.05698C13.0945 4.22081 13.7394 5.76791 13.739 7.41337C13.7375 10.8084 10.9528 13.5709 7.53141 13.5709H7.52895C6.4149 13.5703 5.3223 13.2735 4.36945 12.7125L4.1427 12.5791L1.7932 13.1903L2.42051 10.9181V10.9181Z" fill="url(#paint1_linear_106_587)"/>
<path d="M5.66465 4.31082C5.52484 4.00251 5.37771 3.99629 5.24477 3.99088C5.1359 3.98623 5.01145 3.98658 4.88711 3.98658C4.76266 3.98658 4.56045 4.03303 4.38953 4.21821C4.21844 4.40356 3.73633 4.85146 3.73633 5.76245C3.73633 6.6735 4.40506 7.5539 4.49828 7.67757C4.59162 7.801 5.78928 9.7303 7.68607 10.4725C9.26248 11.0893 9.58328 10.9666 9.92541 10.9357C10.2676 10.9049 11.0296 10.4879 11.185 10.0555C11.3406 9.62321 11.3406 9.25262 11.2939 9.17518C11.2473 9.09803 11.1228 9.05169 10.9362 8.95914C10.7495 8.86652 9.83207 8.41856 9.66103 8.35675C9.48994 8.29501 9.36555 8.26419 9.24109 8.4496C9.11664 8.63472 8.75928 9.05169 8.65035 9.17518C8.54154 9.29896 8.43262 9.31437 8.24605 9.22175C8.05932 9.12885 7.45832 8.93355 6.74529 8.3028C6.19053 7.81199 5.816 7.20588 5.70713 7.02047C5.59826 6.83536 5.69547 6.73501 5.78904 6.64274C5.87289 6.55978 5.97572 6.42652 6.06912 6.31844C6.16217 6.2103 6.19322 6.13315 6.25545 6.00966C6.31773 5.88605 6.28656 5.77792 6.23998 5.6853C6.19322 5.59268 5.83059 4.67693 5.66465 4.31082Z" fill="white"/>
</g>
<defs>
<linearGradient id="paint0_linear_106_587" x1="724.282" y1="1443.54" x2="724.282" y2="0.258789" gradientUnits="userSpaceOnUse">
<stop stop-color="#1FAF38"/>
<stop offset="1" stop-color="#60D669"/>
</linearGradient>
<linearGradient id="paint1_linear_106_587" x1="750" y1="1495.04" x2="750" y2="0" gradientUnits="userSpaceOnUse">
<stop stop-color="#F9F9F9"/>
<stop offset="1" stop-color="white"/>
</linearGradient>
<clipPath id="clip0_106_587">
<rect width="15" height="15" fill="white"/>
</clipPath>
</defs>
</svg>
