<svg width="20" height="20" viewBox="0 0 20 20" fill="none" xmlns="http://www.w3.org/2000/svg">
<path d="M9.595 16.406L9.5 16.4986L9.3955 16.406C4.883 12.4131 1.9 9.77275 1.9 7.09537C1.9 5.24251 3.325 3.85286 5.225 3.85286C6.688 3.85286 8.113 4.77929 8.6165 6.03924H10.3835C10.887 4.77929 12.312 3.85286 13.775 3.85286C15.675 3.85286 17.1 5.24251 17.1 7.09537C17.1 9.77275 14.117 12.4131 9.595 16.406ZM13.775 2C12.122 2 10.5355 2.75041 9.5 3.92698C8.4645 2.75041 6.878 2 5.225 2C2.299 2 0 4.2327 0 7.09537C0 10.588 3.23 13.4507 8.1225 17.7771L9.5 19L10.8775 17.7771C15.77 13.4507 19 10.588 19 7.09537C19 4.2327 16.701 2 13.775 2Z" fill="black"/>
</svg>
