<svg width="20" height="20" viewBox="0 0 20 20" fill="none" xmlns="http://www.w3.org/2000/svg">
<path d="M17.5945 4.39922C17.5066 4.29384 17.3965 4.20906 17.2722 4.15088C17.1479 4.09269 17.0123 4.06252 16.875 4.0625H4.53125L4.19766 2.22031C4.13215 1.86029 3.94237 1.53468 3.6614 1.30025C3.38043 1.06582 3.02608 0.937445 2.66016 0.9375H1.25C1.00136 0.9375 0.762903 1.03627 0.587087 1.21209C0.411272 1.3879 0.3125 1.62636 0.3125 1.875C0.3125 2.12364 0.411272 2.3621 0.587087 2.53791C0.762903 2.71373 1.00136 2.8125 1.25 2.8125H2.39922L4.34531 13.5156C4.39756 13.7999 4.50563 14.071 4.66328 14.3133C4.38418 14.6399 4.19394 15.0328 4.11091 15.4543C4.02788 15.8758 4.05486 16.3116 4.18925 16.7196C4.32365 17.1277 4.56091 17.4942 4.87817 17.7838C5.19543 18.0735 5.58198 18.2765 6.00052 18.3732C6.41907 18.47 6.85549 18.4573 7.2677 18.3364C7.67991 18.2154 8.054 17.9903 8.35388 17.6827C8.65375 17.3751 8.86931 16.9954 8.97974 16.5802C9.09018 16.1651 9.09178 15.7284 8.98438 15.3125H11.6406C11.5103 15.8173 11.541 16.3502 11.7285 16.8366C11.916 17.3231 12.2509 17.7387 12.6863 18.0255C13.1217 18.3122 13.6359 18.4556 14.1568 18.4357C14.6778 18.4157 15.1794 18.2335 15.5917 17.9143C16.0039 17.5952 16.306 17.1551 16.4558 16.6558C16.6056 16.1564 16.5955 15.6227 16.427 15.1294C16.2585 14.6361 15.94 14.2077 15.516 13.9044C15.092 13.601 14.5838 13.4378 14.0625 13.4375H6.49766C6.4246 13.4374 6.35387 13.4117 6.29778 13.3649C6.24169 13.3181 6.20378 13.2531 6.19062 13.1813L6.00937 12.1875H14.6953C15.2077 12.1875 15.7039 12.0076 16.0972 11.6792C16.4906 11.3508 16.7562 10.8948 16.8477 10.3906L17.7977 5.16719C17.8221 5.03211 17.8166 4.89333 17.7815 4.76063C17.7464 4.62793 17.6825 4.50455 17.5945 4.39922ZM7.1875 15.9375C7.1875 16.0611 7.15084 16.182 7.08217 16.2847C7.01349 16.3875 6.91588 16.4676 6.80168 16.5149C6.68747 16.5622 6.56181 16.5746 6.44057 16.5505C6.31933 16.5264 6.20797 16.4669 6.12056 16.3794C6.03315 16.292 5.97362 16.1807 5.94951 16.0594C5.92539 15.9382 5.93777 15.8125 5.98507 15.6983C6.03238 15.5841 6.11249 15.4865 6.21527 15.4178C6.31805 15.3492 6.43889 15.3125 6.5625 15.3125C6.72826 15.3125 6.88723 15.3783 7.00444 15.4956C7.12165 15.6128 7.1875 15.7717 7.1875 15.9375ZM14.0625 16.5625C13.9389 16.5625 13.818 16.5258 13.7153 16.4572C13.6125 16.3885 13.5324 16.2909 13.4851 16.1767C13.4378 16.0625 13.4254 15.9368 13.4495 15.8156C13.4736 15.6943 13.5331 15.583 13.6206 15.4956C13.708 15.4081 13.8193 15.3486 13.9406 15.3245C14.0618 15.3004 14.1875 15.3128 14.3017 15.3601C14.4159 15.4074 14.5135 15.4875 14.5822 15.5903C14.6508 15.693 14.6875 15.8139 14.6875 15.9375C14.6875 16.1033 14.6217 16.2622 14.5044 16.3794C14.3872 16.4967 14.2283 16.5625 14.0625 16.5625ZM15 10.0563C14.9869 10.1277 14.9494 10.1924 14.8937 10.2392C14.8381 10.2859 14.768 10.3119 14.6953 10.3125H5.66875L4.87344 5.9375H15.7516L15 10.0563Z" fill="white"/>
</svg>
