<svg width="17" height="17" viewBox="0 0 17 17" fill="none" xmlns="http://www.w3.org/2000/svg">
<path d="M12.7501 10.6253H4.25008L1.41675 13.4587V2.12533C1.41675 1.93746 1.49138 1.7573 1.62421 1.62446C1.75705 1.49162 1.93722 1.41699 2.12508 1.41699H12.7501C12.9379 1.41699 13.1181 1.49162 13.2509 1.62446C13.3838 1.7573 13.4584 1.93746 13.4584 2.12533V9.91699C13.4584 10.1049 13.3838 10.285 13.2509 10.4179C13.1181 10.5507 12.9379 10.6253 12.7501 10.6253ZM16.2917 6.37533V16.292L13.4584 13.4587H5.66675C5.47889 13.4587 5.29872 13.384 5.16588 13.2512C5.03304 13.1184 4.95841 12.9382 4.95841 12.7503V12.042H14.8751V5.66699H15.5834C15.7713 5.66699 15.9514 5.74162 16.0843 5.87446C16.2171 6.0073 16.2917 6.18746 16.2917 6.37533ZM5.80133 2.83366C5.18508 2.83366 4.68925 2.97533 4.30675 3.25158C3.93841 3.54199 3.75425 3.94574 3.76133 4.50533L3.76841 4.52658H5.1355C5.14258 4.31408 5.20633 4.15116 5.33383 4.03783C5.465 3.92906 5.63097 3.87122 5.80133 3.87491C6.02091 3.87491 6.20508 3.94574 6.33258 4.07324C6.46008 4.20783 6.51675 4.39199 6.51675 4.60449C6.51675 4.83116 6.46716 5.02241 6.35383 5.18533C6.25466 5.34824 6.10591 5.48991 5.92175 5.60324C5.5605 5.84408 5.31258 6.05658 5.178 6.24783C5.03633 6.43199 4.95841 6.72949 4.95841 7.08366H6.37508C6.37508 6.86408 6.40341 6.68699 6.46716 6.55949C6.53091 6.43199 6.65133 6.30449 6.82841 6.19116C7.14716 6.02116 7.40925 5.81574 7.61466 5.53241C7.82008 5.24908 7.92633 4.95866 7.92633 4.60449C7.92633 4.06616 7.73508 3.63408 7.35258 3.31533C6.97716 2.99658 6.46008 2.83366 5.80133 2.83366ZM4.95841 7.79199V9.20866H6.37508V7.79199H4.95841ZM9.20841 9.20866H10.6251V7.79199H9.20841V9.20866ZM9.20841 2.83366V7.08366H10.6251V2.83366H9.20841Z" fill="#555555"/>
</svg>
