<svg width="17" height="17" viewBox="0 0 17 17" fill="none" xmlns="http://www.w3.org/2000/svg">
<path d="M13.4583 2.125H5.66667C4.49508 2.125 3.54167 3.07842 3.54167 4.25V4.95833H2.83333C2.64547 4.95833 2.4653 5.03296 2.33247 5.1658C2.19963 5.29864 2.125 5.4788 2.125 5.66667C2.125 5.85453 2.19963 6.0347 2.33247 6.16753C2.4653 6.30037 2.64547 6.375 2.83333 6.375H3.54167V7.79167H2.83333C2.64547 7.79167 2.4653 7.86629 2.33247 7.99913C2.19963 8.13197 2.125 8.31214 2.125 8.5C2.125 8.68786 2.19963 8.86803 2.33247 9.00087C2.4653 9.13371 2.64547 9.20833 2.83333 9.20833H3.54167V10.625H2.83333C2.64547 10.625 2.4653 10.6996 2.33247 10.8325C2.19963 10.9653 2.125 11.1455 2.125 11.3333C2.125 11.5212 2.19963 11.7014 2.33247 11.8342C2.4653 11.967 2.64547 12.0417 2.83333 12.0417H3.54167V12.75C3.54167 13.9216 4.49508 14.875 5.66667 14.875H13.4583C14.6299 14.875 15.5833 13.9216 15.5833 12.75V4.25C15.5833 3.07842 14.6299 2.125 13.4583 2.125ZM4.95833 4.25C4.95833 3.85971 5.27637 3.54167 5.66667 3.54167V4.95833H4.95833V4.25ZM4.95833 6.375H5.66667V7.79167H4.95833V6.375ZM4.95833 9.20833H5.66667V10.625H4.95833V9.20833ZM4.95833 12.75V12.0417H5.66667V13.4583C5.27637 13.4583 4.95833 13.1403 4.95833 12.75ZM14.1667 12.75C14.1667 13.1403 13.8486 13.4583 13.4583 13.4583H6.375V3.54167H13.4583C13.8486 3.54167 14.1667 3.85971 14.1667 4.25V12.75Z" fill="#555555"/>
<path d="M9.91667 8.85384C10.6991 8.85384 11.3333 8.21958 11.3333 7.43717C11.3333 6.65477 10.6991 6.02051 9.91667 6.02051C9.13426 6.02051 8.5 6.65477 8.5 7.43717C8.5 8.21958 9.13426 8.85384 9.91667 8.85384Z" fill="#555555"/>
<path d="M9.91659 9.46094C8.81017 9.46094 8.14575 9.9674 8.14575 10.4731C8.14575 10.726 8.81017 10.9796 9.91659 10.9796C10.955 10.9796 11.6874 10.7267 11.6874 10.4731C11.6874 9.9674 10.9933 9.46094 9.91659 9.46094Z" fill="#555555"/>
</svg>
