<svg width="22" height="15" viewBox="0 0 22 15" fill="none" xmlns="http://www.w3.org/2000/svg">
<path d="M1.22222 8.88878C1.89724 8.88878 2.44444 8.34157 2.44444 7.66656C2.44444 6.99154 1.89724 6.44434 1.22222 6.44434C0.547208 6.44434 0 6.99154 0 7.66656C0 8.34157 0.547208 8.88878 1.22222 8.88878Z" fill="#908F8F"/>
<path d="M20.8509 6.44434H6.03756C5.40305 6.44434 4.88867 6.95871 4.88867 7.59322V7.73989C4.88867 8.37441 5.40305 8.88878 6.03756 8.88878H20.8509C21.4854 8.88878 21.9998 8.37441 21.9998 7.73989V7.59322C21.9998 6.95871 21.4854 6.44434 20.8509 6.44434Z" fill="#908F8F"/>
<path d="M20.8511 12.5566H1.14889C0.514375 12.5566 0 13.071 0 13.7055V13.8522C0 14.4867 0.514375 15.0011 1.14889 15.0011H20.8511C21.4856 15.0011 22 14.4867 22 13.8522V13.7055C22 13.071 21.4856 12.5566 20.8511 12.5566Z" fill="#908F8F"/>
<path d="M20.8511 0.333984H1.14889C0.514375 0.333984 0 0.84836 0 1.48287V1.62954C0 2.26405 0.514375 2.77843 1.14889 2.77843H20.8511C21.4856 2.77843 22 2.26405 22 1.62954V1.48287C22 0.84836 21.4856 0.333984 20.8511 0.333984Z" fill="#908F8F"/>
</svg>
