<svg width="24" height="24" viewBox="0 0 24 24" fill="none" xmlns="http://www.w3.org/2000/svg">
<path d="M14.75 15V15.75C14.75 15.9667 14.821 16.1457 14.963 16.287C15.105 16.4283 15.284 16.4993 15.5 16.5C15.7167 16.5 15.8957 16.429 16.037 16.287C16.1783 16.145 16.2493 15.966 16.25 15.75V15H17C17.2833 15 17.521 14.904 17.713 14.712C17.905 14.52 18.0007 14.2827 18 14V10C18 9.71667 17.904 9.479 17.712 9.287C17.52 9.095 17.2827 8.99934 17 9H14C13.7167 9 13.479 9.096 13.287 9.288C13.095 9.48 12.9993 9.71734 13 10V14C13 14.2833 13.096 14.521 13.288 14.713C13.48 14.905 13.7173 15.0007 14 15H14.75ZM7.5 13H9.5V14.25C9.5 14.4667 9.571 14.6457 9.713 14.787C9.855 14.9283 10.034 14.9993 10.25 15C10.4667 15 10.6457 14.929 10.787 14.787C10.9283 14.645 10.9993 14.466 11 14.25V9.75C11 9.53334 10.929 9.35434 10.787 9.213C10.645 9.07167 10.466 9.00067 10.25 9C10.0333 9 9.85434 9.071 9.713 9.213C9.57167 9.355 9.50067 9.534 9.5 9.75V11.5H7.5V9.75C7.5 9.53334 7.429 9.35434 7.287 9.213C7.145 9.07167 6.966 9.00067 6.75 9C6.53334 9 6.35433 9.071 6.213 9.213C6.07167 9.355 6.00067 9.534 6 9.75V14.25C6 14.4667 6.071 14.6457 6.213 14.787C6.355 14.9283 6.534 14.9993 6.75 15C6.96667 15 7.14567 14.929 7.287 14.787C7.42834 14.645 7.49934 14.466 7.5 14.25V13ZM14.5 13.5V10.5H16.5V13.5H14.5ZM4 20C3.45 20 2.979 19.804 2.587 19.412C2.195 19.02 1.99934 18.5493 2 18V6C2 5.45 2.196 4.979 2.588 4.587C2.98 4.195 3.45067 3.99934 4 4H20C20.55 4 21.021 4.196 21.413 4.588C21.805 4.98 22.0007 5.45067 22 6V18C22 18.55 21.804 19.021 21.412 19.413C21.02 19.805 20.5493 20.0007 20 20H4Z" fill="#1351C1"/>
</svg>
