<svg width="21" height="21" viewBox="0 0 21 21" fill="none" xmlns="http://www.w3.org/2000/svg">
<g clip-path="url(#clip0_768_5394)">
<path d="M16.9054 20.25H4.09536C3.67202 20.2526 3.25293 20.1655 2.86564 19.9946C2.47835 19.8236 2.13163 19.5726 1.84826 19.2581C1.5649 18.9436 1.35132 18.5726 1.22156 18.1696C1.09179 17.7667 1.04878 17.3408 1.09536 16.92L2.10036 8.08503C2.14114 7.71645 2.31701 7.37604 2.59402 7.1295C2.87103 6.88297 3.22954 6.74778 3.60036 6.75003H17.4004C17.7712 6.74778 18.1297 6.88297 18.4067 7.1295C18.6837 7.37604 18.8596 7.71645 18.9004 8.08503L19.8754 16.92C19.9217 17.3383 19.8794 17.7616 19.7514 18.1625C19.6235 18.5634 19.4126 18.9328 19.1325 19.2469C18.8524 19.5609 18.5093 19.8126 18.1256 19.9854C17.7419 20.1582 17.3262 20.2484 16.9054 20.25Z" stroke="#1351C1" stroke-width="2" stroke-linecap="round" stroke-linejoin="round"/>
<path d="M4.5 6.75C4.5 5.1587 5.13214 3.63258 6.25736 2.50736C7.38258 1.38214 8.9087 0.75 10.5 0.75C12.0913 0.75 13.6174 1.38214 14.7426 2.50736C15.8679 3.63258 16.5 5.1587 16.5 6.75M6.75 11.25H14.25" stroke="#1351C1" stroke-width="2" stroke-linecap="round" stroke-linejoin="round"/>
</g>
<defs>
<clipPath id="clip0_768_5394">
<rect width="21" height="21" fill="white"/>
</clipPath>
</defs>
</svg>
