<svg width="17" height="17" viewBox="0 0 17 17" fill="none" xmlns="http://www.w3.org/2000/svg">
<g clip-path="url(#clip0_460_1716)">
<path d="M14.3438 9.5625C14.4876 9.5625 14.6121 9.61507 14.7173 9.72021C14.8224 9.82536 14.875 9.94987 14.875 10.0938C14.875 10.2376 14.8224 10.3621 14.7173 10.4673C14.6121 10.5724 14.4876 10.625 14.3438 10.625C14.1999 10.625 14.0754 10.5724 13.9702 10.4673C13.8651 10.3621 13.8125 10.2376 13.8125 10.0938C13.8125 9.94987 13.8651 9.82536 13.9702 9.72021C14.0754 9.61507 14.1999 9.5625 14.3438 9.5625ZM9.33838 9.40479C8.9012 9.10596 8.43083 8.88184 7.92725 8.73242C7.42367 8.58301 6.90625 8.50553 6.375 8.5C5.88802 8.5 5.41764 8.56364 4.96387 8.69092C4.51009 8.8182 4.08675 8.99528 3.69385 9.22217C3.30094 9.44906 2.94401 9.72575 2.62305 10.0522C2.30208 10.3787 2.02539 10.7384 1.79297 11.1313C1.56055 11.5243 1.3807 11.9476 1.25342 12.4014C1.12614 12.8551 1.0625 13.3255 1.0625 13.8125H0C0 13.165 0.0968424 12.5314 0.290527 11.9116C0.484212 11.2918 0.763672 10.7191 1.12891 10.1934C1.49414 9.66764 1.92855 9.20003 2.43213 8.79053C2.93571 8.38102 3.4974 8.06836 4.11719 7.85254C3.80729 7.65332 3.5306 7.42367 3.28711 7.16357C3.04362 6.90348 2.83333 6.61849 2.65625 6.30859C2.47917 5.9987 2.34912 5.6722 2.26611 5.3291C2.18311 4.986 2.13607 4.6263 2.125 4.25C2.125 3.66341 2.23568 3.11279 2.45703 2.59814C2.67839 2.0835 2.97998 1.63249 3.36182 1.24512C3.74365 0.857747 4.19466 0.553385 4.71484 0.332031C5.23503 0.110677 5.78841 0 6.375 0C6.96159 0 7.51221 0.110677 8.02686 0.332031C8.5415 0.553385 8.99251 0.85498 9.37988 1.23682C9.76725 1.61865 10.0716 2.06966 10.293 2.58984C10.5143 3.11003 10.625 3.66341 10.625 4.25C10.625 4.62077 10.5807 4.9777 10.4922 5.3208C10.4036 5.6639 10.2708 5.99316 10.0938 6.30859C9.91667 6.62402 9.70915 6.90902 9.47119 7.16357C9.23324 7.41813 8.95378 7.64779 8.63281 7.85254C9.08105 8.01302 9.5127 8.23438 9.92773 8.5166L9.33838 9.40479ZM3.1875 4.25C3.1875 4.69271 3.27051 5.10498 3.43652 5.48682C3.60254 5.86865 3.82943 6.20622 4.11719 6.49951C4.40495 6.79281 4.74251 7.02246 5.12988 7.18848C5.51725 7.35449 5.93229 7.4375 6.375 7.4375C6.81217 7.4375 7.22445 7.35449 7.61182 7.18848C7.99919 7.02246 8.33675 6.79557 8.62451 6.50781C8.91227 6.22005 9.14193 5.88249 9.31348 5.49512C9.48503 5.10775 9.56803 4.69271 9.5625 4.25C9.5625 3.81283 9.47949 3.40055 9.31348 3.01318C9.14746 2.62581 8.92057 2.28825 8.63281 2.00049C8.34505 1.71273 8.00472 1.48307 7.61182 1.31152C7.21891 1.13997 6.80664 1.05697 6.375 1.0625C5.93229 1.0625 5.52002 1.14551 5.13818 1.31152C4.75635 1.47754 4.41878 1.70443 4.12549 1.99219C3.83219 2.27995 3.60254 2.62028 3.43652 3.01318C3.27051 3.40609 3.1875 3.81836 3.1875 4.25ZM13.8125 7.4375C14.2497 7.4375 14.6619 7.52051 15.0493 7.68652C15.4367 7.85254 15.7743 8.07943 16.062 8.36719C16.3498 8.65495 16.5794 8.99528 16.751 9.38818C16.9225 9.78109 17.0055 10.1934 17 10.625C17 11.0677 16.917 11.48 16.751 11.8618C16.585 12.2437 16.3581 12.5812 16.0703 12.8745C15.7826 13.1678 15.4422 13.3975 15.0493 13.5635C14.6564 13.7295 14.2441 13.8125 13.8125 13.8125C13.4528 13.8125 13.0986 13.7489 12.75 13.6216V14.875H11.6875V15.9375H10.625V17H7.4375V14.6592L10.7163 11.3721C10.6554 11.1175 10.625 10.8685 10.625 10.625C10.625 10.1878 10.708 9.77555 10.874 9.38818C11.04 9.00081 11.2669 8.66325 11.5547 8.37549C11.8424 8.08773 12.18 7.85807 12.5674 7.68652C12.9548 7.51497 13.3698 7.43197 13.8125 7.4375ZM13.8125 12.75C14.1058 12.75 14.3797 12.6947 14.6343 12.584C14.8888 12.4733 15.1157 12.3211 15.3149 12.1274C15.5142 11.9338 15.6663 11.7096 15.7715 11.4551C15.8766 11.2005 15.932 10.9238 15.9375 10.625C15.9375 10.3317 15.8822 10.0578 15.7715 9.80322C15.6608 9.54867 15.5086 9.32178 15.3149 9.12256C15.1213 8.92334 14.8971 8.77116 14.6426 8.66602C14.388 8.56087 14.1113 8.50553 13.8125 8.5C13.5192 8.5 13.2453 8.55534 12.9907 8.66602C12.7362 8.77669 12.5093 8.92887 12.3101 9.12256C12.1108 9.31624 11.9587 9.54036 11.8535 9.79492C11.7484 10.0495 11.693 10.3262 11.6875 10.625C11.6875 10.8187 11.7124 10.9958 11.7622 11.1562C11.812 11.3167 11.8701 11.4855 11.9365 11.6626L8.5 15.0908V15.9375H9.5625V14.875H10.625V13.8125H11.6875V13.0571L12.4595 12.2935C12.6808 12.4207 12.8939 12.5286 13.0986 12.6172C13.3034 12.7057 13.5413 12.75 13.8125 12.75Z" fill="#555555"/>
</g>
<defs>
<clipPath id="clip0_460_1716">
<rect width="17" height="17" fill="white"/>
</clipPath>
</defs>
</svg>
