<svg width="17" height="17" viewBox="0 0 17 17" fill="none" xmlns="http://www.w3.org/2000/svg">
<path fill-rule="evenodd" clip-rule="evenodd" d="M3.1875 2.65625C3.0466 2.65625 2.91148 2.71222 2.81185 2.81185C2.71222 2.91148 2.65625 3.0466 2.65625 3.1875V13.8125C2.65625 13.9534 2.71222 14.0885 2.81185 14.1882C2.91148 14.2878 3.0466 14.3438 3.1875 14.3438H8.76562C8.97697 14.3438 9.17966 14.4277 9.3291 14.5771C9.47854 14.7266 9.5625 14.9293 9.5625 15.1406C9.5625 15.352 9.47854 15.5547 9.3291 15.7041C9.17966 15.8535 8.97697 15.9375 8.76562 15.9375H3.1875C2.62391 15.9375 2.08341 15.7136 1.6849 15.3151C1.28638 14.9166 1.0625 14.3761 1.0625 13.8125V3.1875C1.0625 2.62391 1.28638 2.08341 1.6849 1.6849C2.08341 1.28638 2.62391 1.0625 3.1875 1.0625H13.8125C14.3761 1.0625 14.9166 1.28638 15.3151 1.6849C15.7136 2.08341 15.9375 2.62391 15.9375 3.1875V9.82812C15.9375 10.0395 15.8535 10.2422 15.7041 10.3916C15.5547 10.541 15.352 10.625 15.1406 10.625C14.9293 10.625 14.7266 10.541 14.5771 10.3916C14.4277 10.2422 14.3438 10.0395 14.3438 9.82812V3.1875C14.3438 3.0466 14.2878 2.91148 14.1882 2.81185C14.0885 2.71222 13.9534 2.65625 13.8125 2.65625H3.1875ZM16.235 11.9213C16.3842 12.0707 16.468 12.2732 16.468 12.4844C16.468 12.6955 16.3842 12.8981 16.235 13.0475L13.5787 15.7037C13.4293 15.853 13.2268 15.9368 13.0156 15.9368C12.8045 15.9368 12.6019 15.853 12.4525 15.7037L11.39 14.6412C11.3117 14.5683 11.2489 14.4803 11.2054 14.3826C11.1618 14.2848 11.1384 14.1793 11.1365 14.0723C11.1346 13.9653 11.1543 13.859 11.1944 13.7598C11.2344 13.6606 11.2941 13.5704 11.3698 13.4948C11.4454 13.4191 11.5356 13.3594 11.6348 13.3194C11.734 13.2793 11.8403 13.2596 11.9473 13.2615C12.0543 13.2634 12.1598 13.2868 12.2576 13.3304C12.3553 13.3739 12.4433 13.4367 12.5162 13.515L13.0156 14.0144L15.1088 11.9213C15.2582 11.772 15.4607 11.6882 15.6719 11.6882C15.883 11.6882 16.0856 11.772 16.235 11.9213ZM5.04688 4.25C4.83553 4.25 4.63284 4.33396 4.4834 4.4834C4.33396 4.63284 4.25 4.83553 4.25 5.04688C4.25 5.25822 4.33396 5.46091 4.4834 5.61035C4.63284 5.75979 4.83553 5.84375 5.04688 5.84375H11.9531C12.1645 5.84375 12.3672 5.75979 12.5166 5.61035C12.666 5.46091 12.75 5.25822 12.75 5.04688C12.75 4.83553 12.666 4.63284 12.5166 4.4834C12.3672 4.33396 12.1645 4.25 11.9531 4.25H5.04688ZM4.25 8.5C4.25 8.28866 4.33396 8.08597 4.4834 7.93652C4.63284 7.78708 4.83553 7.70312 5.04688 7.70312H11.9531C12.1645 7.70312 12.3672 7.78708 12.5166 7.93652C12.666 8.08597 12.75 8.28866 12.75 8.5C12.75 8.71134 12.666 8.91403 12.5166 9.06348C12.3672 9.21292 12.1645 9.29688 11.9531 9.29688H5.04688C4.83553 9.29688 4.63284 9.21292 4.4834 9.06348C4.33396 8.91403 4.25 8.71134 4.25 8.5ZM5.04688 11.1562C4.83553 11.1562 4.63284 11.2402 4.4834 11.3896C4.33396 11.5391 4.25 11.7418 4.25 11.9531C4.25 12.1645 4.33396 12.3672 4.4834 12.5166C4.63284 12.666 4.83553 12.75 5.04688 12.75H8.76562C8.97697 12.75 9.17966 12.666 9.3291 12.5166C9.47854 12.3672 9.5625 12.1645 9.5625 11.9531C9.5625 11.7418 9.47854 11.5391 9.3291 11.3896C9.17966 11.2402 8.97697 11.1562 8.76562 11.1562H5.04688Z" fill="#555555"/>
</svg>
