<svg width="17" height="17" viewBox="0 0 17 17" fill="none" xmlns="http://www.w3.org/2000/svg">
<g clip-path="url(#clip0_442_593)">
<path fill-rule="evenodd" clip-rule="evenodd" d="M5.63975 1.59375L1.59375 5.63975V11.3603L5.63975 15.4062H11.3603L15.4062 11.3603V5.63975L11.3603 1.59375H5.63975ZM12.0211 0H4.97887L0 4.97887V12.0211L4.97887 17H12.0211L17 12.0211V4.97887L12.0211 0ZM9.5625 11.6875C9.5625 11.9693 9.45056 12.2395 9.2513 12.4388C9.05204 12.6381 8.78179 12.75 8.5 12.75C8.21821 12.75 7.94796 12.6381 7.7487 12.4388C7.54944 12.2395 7.4375 11.9693 7.4375 11.6875C7.4375 11.4057 7.54944 11.1355 7.7487 10.9362C7.94796 10.7369 8.21821 10.625 8.5 10.625C8.78179 10.625 9.05204 10.7369 9.2513 10.9362C9.45056 11.1355 9.5625 11.4057 9.5625 11.6875ZM9.29688 5.04688C9.29688 4.83553 9.21292 4.63284 9.06348 4.4834C8.91403 4.33396 8.71134 4.25 8.5 4.25C8.28866 4.25 8.08597 4.33396 7.93652 4.4834C7.78708 4.63284 7.70312 4.83553 7.70312 5.04688V8.76562C7.70312 8.97697 7.78708 9.17966 7.93652 9.3291C8.08597 9.47854 8.28866 9.5625 8.5 9.5625C8.71134 9.5625 8.91403 9.47854 9.06348 9.3291C9.21292 9.17966 9.29688 8.97697 9.29688 8.76562V5.04688Z" fill="#555555"/>
</g>
<defs>
<clipPath id="clip0_442_593">
<rect width="17" height="17" fill="white"/>
</clipPath>
</defs>
</svg>
