<svg width="15" height="13" viewBox="0 0 15 13" fill="none" xmlns="http://www.w3.org/2000/svg">
<path d="M12.7725 7.14992H0.652123C0.479169 7.14992 0.313299 7.08144 0.191003 6.95956C0.0687058 6.83768 0 6.67237 0 6.5C0 6.32763 0.0687058 6.16232 0.191003 6.04044C0.313299 5.91856 0.479169 5.85008 0.652123 5.85008H12.7725L8.0159 1.11088C7.89345 0.988844 7.82466 0.823325 7.82466 0.650739C7.82466 0.478152 7.89345 0.312634 8.0159 0.190597C8.13835 0.0685587 8.30443 0 8.4776 0C8.65077 0 8.81685 0.0685587 8.93931 0.190597L14.8084 6.03986C14.8691 6.10023 14.9173 6.17195 14.9502 6.25091C14.9831 6.32987 15 6.41451 15 6.5C15 6.58549 14.9831 6.67013 14.9502 6.74909C14.9173 6.82805 14.8691 6.89977 14.8084 6.96014L8.93931 12.8094C8.81685 12.9314 8.65077 13 8.4776 13C8.30443 13 8.13835 12.9314 8.0159 12.8094C7.89345 12.6874 7.82466 12.5218 7.82466 12.3493C7.82466 12.1767 7.89345 12.0112 8.0159 11.8891L12.7725 7.14992Z" fill="#555555"/>
</svg>
