<svg width="17" height="17" viewBox="0 0 17 17" fill="none" xmlns="http://www.w3.org/2000/svg">
<path d="M15.5834 9.20866C15.5834 9.58408 15.4347 9.94533 15.1655 10.2074L14.8751 10.5049C14.846 9.53591 14.4867 8.60594 13.8567 7.86908C13.2268 7.13221 12.364 6.63268 11.4113 6.45324L7.79175 2.83366H2.83341V7.79199L6.453 11.4116C6.81425 13.3453 8.47883 14.8116 10.5047 14.8753L10.2072 15.1657C9.94508 15.4349 9.58383 15.5837 9.20842 15.5837C8.833 15.5837 8.47883 15.4349 8.20967 15.1728L1.83466 8.79783C1.5655 8.52866 1.41675 8.16741 1.41675 7.79199V2.83366C1.41675 2.05449 2.05425 1.41699 2.83341 1.41699H7.79175C8.16717 1.41699 8.52842 1.56574 8.7905 1.82783L15.1655 8.20283C15.4347 8.47199 15.5834 8.83324 15.5834 9.20866ZM3.54175 4.60449C3.54175 5.19241 4.01633 5.66699 4.60425 5.66699C5.19216 5.66699 5.66675 5.19241 5.66675 4.60449C5.66675 4.01658 5.19216 3.54199 4.60425 3.54199C4.01633 3.54199 3.54175 4.01658 3.54175 4.60449ZM10.703 7.51574C8.93216 7.51574 7.5155 8.93241 7.5155 10.7032C7.5155 12.4741 8.93216 13.8907 10.703 13.8907C11.3334 13.8907 11.9001 13.7137 12.3959 13.4091L14.5988 15.5837L15.5834 14.5991L13.4017 12.3962C13.7134 11.9145 13.8905 11.3337 13.8905 10.7032C13.8905 8.93241 12.4738 7.51574 10.703 7.51574ZM10.703 8.93241C11.6876 8.93241 12.4738 9.72574 12.4738 10.7032C12.4738 11.6807 11.6876 12.4741 10.703 12.4741C9.71842 12.4741 8.93216 11.6878 8.93216 10.7032C8.93216 9.71866 9.7255 8.93241 10.703 8.93241Z" fill="#555555"/>
</svg>
