<svg width="17" height="17" viewBox="0 0 17 17" fill="none" xmlns="http://www.w3.org/2000/svg">
<path d="M10.0938 15.1587C9.82231 15.4302 9.48585 15.566 9.08446 15.566C8.68307 15.566 8.34661 15.4302 8.07509 15.1587L1.84175 8.92533C1.71189 8.79547 1.60847 8.64199 1.5315 8.46491C1.45453 8.28783 1.41628 8.09894 1.41675 7.89824V2.83366C1.41675 2.44408 1.55559 2.11045 1.83325 1.83278C2.11092 1.55512 2.44431 1.41652 2.83342 1.41699H7.898C8.0987 1.41699 8.28759 1.45548 8.46467 1.53245C8.64175 1.60942 8.79523 1.7126 8.92509 1.84199L15.1584 8.09304C15.4299 8.36456 15.5657 8.69819 15.5657 9.09391C15.5657 9.48963 15.4299 9.82302 15.1584 10.0941L10.0938 15.1587ZM9.08446 14.167L14.149 9.10241L7.898 2.83366H2.83342V7.89824L9.08446 14.167ZM4.60425 5.66699C4.89939 5.66699 5.15038 5.56358 5.35721 5.35674C5.56404 5.14991 5.66722 4.89916 5.66675 4.60449C5.66675 4.30935 5.56334 4.05837 5.3565 3.85153C5.14967 3.6447 4.89892 3.54152 4.60425 3.54199C4.30911 3.54199 4.05813 3.64541 3.85129 3.85224C3.64446 4.05908 3.54128 4.30983 3.54175 4.60449C3.54175 4.89963 3.64517 5.15062 3.852 5.35745C4.05884 5.56429 4.30959 5.66747 4.60425 5.66699Z" fill="#555555"/>
</svg>
