<svg width="17" height="17" viewBox="0 0 17 17" fill="none" xmlns="http://www.w3.org/2000/svg">
<path d="M9.5625 2.125C7.616 2.125 5.98878 3.32031 5.24609 4.99694C4.93691 4.86838 4.607 4.78125 4.25 4.78125C2.78906 4.78125 1.59375 5.97656 1.59375 7.4375C1.59375 7.51453 1.60438 7.58094 1.61022 7.65319C0.668312 8.32788 0 9.38188 0 10.625C0 12.673 1.67078 14.3438 3.71875 14.3438H13.2812C15.3292 14.3438 17 12.673 17 10.625C17 8.9505 15.8567 7.58253 14.3273 7.12194C14.3315 7.04969 14.3438 6.98116 14.3438 6.90625C14.3438 4.27284 12.1959 2.125 9.5625 2.125ZM9.5625 3.1875C11.6232 3.1875 13.2812 4.84553 13.2812 6.90625C13.2812 7.06828 13.2706 7.23191 13.2478 7.40456L13.1649 7.91881L13.6962 8.00169C14.322 8.09812 14.8924 8.41594 15.3037 8.89735C15.715 9.37877 15.9399 9.99181 15.9375 10.625C15.9375 12.0982 14.7544 13.2812 13.2812 13.2812H3.71875C2.24559 13.2812 1.0625 12.0982 1.0625 10.625C1.06164 10.1514 1.18742 9.68615 1.42683 9.27749C1.66623 8.86884 2.01054 8.53162 2.42409 8.30078L2.75613 8.11803L2.68972 7.73606C2.66859 7.63791 2.65737 7.53789 2.65625 7.4375C2.65625 6.55137 3.36387 5.84375 4.25 5.84375C4.59637 5.84375 4.91406 5.95159 5.17969 6.14284L5.77734 6.59069L5.99303 5.86022C6.21863 5.08844 6.68853 4.41069 7.33217 3.92875C7.9758 3.44682 8.75843 3.18671 9.5625 3.1875ZM10.625 6.90625V11.6875H11.6875V6.90625H10.625ZM8.5 7.96875V11.6875H9.5625V7.96875H8.5ZM6.375 8.5V11.6875H7.4375V8.5H6.375ZM4.25 9.03125V11.6875H5.3125V9.03125H4.25Z" fill="#555555"/>
</svg>
