<svg width="27" height="27" viewBox="0 0 27 27" fill="none" xmlns="http://www.w3.org/2000/svg">
<path d="M13.4999 9.28103C12.381 9.28103 11.308 9.7255 10.5168 10.5167C9.72563 11.3078 9.28115 12.3809 9.28115 13.4998C9.28115 14.6187 9.72563 15.6917 10.5168 16.4829C11.308 17.2741 12.381 17.7185 13.4999 17.7185C14.6188 17.7185 15.6918 17.2741 16.483 16.4829C17.2742 15.6917 17.7187 14.6187 17.7187 13.4998C17.7187 12.3809 17.2742 11.3078 16.483 10.5167C15.6918 9.7255 14.6188 9.28103 13.4999 9.28103ZM10.9687 13.4998C10.9687 12.8285 11.2353 12.1846 11.71 11.7099C12.1847 11.2352 12.8286 10.9685 13.4999 10.9685C14.1712 10.9685 14.8151 11.2352 15.2898 11.7099C15.7645 12.1846 16.0312 12.8285 16.0312 13.4998C16.0312 14.1711 15.7645 14.8149 15.2898 15.2896C14.8151 15.7643 14.1712 16.031 13.4999 16.031C12.8286 16.031 12.1847 15.7643 11.71 15.2896C11.2353 14.8149 10.9687 14.1711 10.9687 13.4998ZM10.8337 24.9984C11.7069 25.2068 12.6022 25.3123 13.4999 25.3123C14.3968 25.3109 15.2905 25.2047 16.1628 24.9959C16.4134 24.9368 16.6396 24.8016 16.8103 24.6088C16.981 24.4161 17.0879 24.1752 17.1162 23.9193L17.3137 22.1221C17.3327 21.926 17.3981 21.7373 17.5045 21.5716C17.611 21.4058 17.7553 21.2677 17.9256 21.1688C18.0959 21.0699 18.2874 21.0129 18.4841 21.0026C18.6808 20.9923 18.8771 21.029 19.0568 21.1096L20.7064 21.8318C20.9425 21.9357 21.2051 21.9635 21.4578 21.9114C21.7105 21.8592 21.9406 21.7297 22.1163 21.5407C23.3351 20.2275 24.2449 18.6584 24.7792 16.9482C24.8558 16.7008 24.8534 16.4357 24.7726 16.1897C24.6917 15.9438 24.5362 15.729 24.3277 15.5754L22.8689 14.4996C22.7096 14.3835 22.58 14.2313 22.4907 14.0555C22.4014 13.8798 22.355 13.6853 22.3552 13.4882C22.3555 13.291 22.4024 13.0967 22.4921 12.9211C22.5818 12.7456 22.7118 12.5937 22.8714 12.478L24.3227 11.4064C24.5323 11.2532 24.6888 11.0382 24.77 10.7915C24.8513 10.5449 24.8533 10.279 24.7758 10.0311C24.2425 8.32033 23.3323 6.75096 22.1121 5.43859C21.9356 5.24997 21.7051 5.12068 21.4521 5.06855C21.1992 5.01641 20.9363 5.044 20.6996 5.1475L19.0577 5.86975C18.8777 5.9482 18.6818 5.9832 18.4858 5.97193C18.2898 5.96065 18.0992 5.90342 17.9294 5.80485C17.7597 5.70628 17.6155 5.56914 17.5085 5.40453C17.4015 5.23991 17.3348 5.05243 17.3137 4.85725L17.1145 3.0685C17.0867 2.80952 16.9783 2.56578 16.8047 2.37159C16.6311 2.1774 16.401 2.04254 16.1467 1.98597C15.2803 1.79237 14.3961 1.68972 13.5083 1.67969C12.6154 1.69026 11.7258 1.7929 10.8539 1.98597C10.5996 2.04157 10.3693 2.17581 10.1956 2.36966C10.0219 2.56351 9.9136 2.80713 9.88612 3.06597L9.68615 4.85641C9.66431 5.05189 9.59699 5.23953 9.4896 5.40432C9.3822 5.56911 9.23771 5.70646 9.06769 5.80537C8.89767 5.90428 8.70685 5.962 8.51052 5.97391C8.31418 5.98583 8.11779 5.9516 7.93706 5.87397L6.29512 5.15087C6.05821 5.05025 5.79617 5.02461 5.54425 5.07741C5.29233 5.13021 5.06263 5.25891 4.88606 5.44619C3.66569 6.75983 2.75469 8.32986 2.21981 10.0413C2.14368 10.2885 2.14631 10.5532 2.22734 10.7989C2.30837 11.0446 2.46379 11.2589 2.67206 11.4123L4.12753 12.4856C4.28608 12.6023 4.41497 12.7546 4.50381 12.9302C4.59264 13.1059 4.63893 13.3 4.63893 13.4968C4.63893 13.6937 4.59264 13.8878 4.50381 14.0634C4.41497 14.2391 4.28608 14.3914 4.12753 14.5081L2.67206 15.5838C2.463 15.7376 2.30713 15.9527 2.22621 16.1992C2.14529 16.4458 2.14335 16.7115 2.22065 16.9592C2.75528 18.6717 3.66628 20.2428 4.8869 21.5576C5.00294 21.6824 5.14364 21.7817 5.30006 21.8492C5.45649 21.9167 5.62524 21.951 5.79562 21.9499C5.9669 21.9499 6.1365 21.9145 6.29428 21.8462L7.94381 21.1214C8.12372 21.0436 8.31937 21.0092 8.51502 21.0208C8.71066 21.0324 8.90086 21.0898 9.07031 21.1882C9.23977 21.2867 9.38376 21.4236 9.49072 21.5878C9.59768 21.752 9.66461 21.9391 9.68615 22.1339L9.88443 23.9277C9.91323 24.1822 10.0198 24.4217 10.1897 24.6135C10.3596 24.8052 10.5844 24.9391 10.8337 24.9984ZM15.4751 23.424C14.1733 23.691 12.8308 23.691 11.5289 23.424L11.3644 21.9558C11.2839 21.2376 10.9415 20.5743 10.4025 20.0928C9.98052 19.7213 9.46209 19.4766 8.90702 19.387C8.35195 19.2974 7.78287 19.3666 7.26543 19.5866L5.91037 20.1772C5.03624 19.1763 4.36356 18.016 3.92925 16.76L5.13075 15.8724C5.50195 15.5989 5.80368 15.242 6.01163 14.8304C6.21958 14.4189 6.32792 13.9642 6.32792 13.5032C6.32792 13.0421 6.21958 12.5874 6.01163 12.1759C5.80368 11.7643 5.50195 11.4074 5.13075 11.1339L3.93178 10.2488C4.3666 8.99412 5.03925 7.83503 5.9129 6.835L7.2629 7.42562C7.635 7.58993 8.0374 7.67444 8.44415 7.67369C9.1685 7.67141 9.86675 7.403 10.4061 6.91949C10.9455 6.43598 11.2883 5.77111 11.3694 5.05131L11.5331 3.57728C12.1862 3.45072 12.8494 3.38322 13.5134 3.37478C14.1732 3.38322 14.8313 3.45072 15.4793 3.57728L15.6363 5.04541C15.7144 5.76567 16.0561 6.4316 16.5956 6.91516C17.0179 7.28899 17.5377 7.53508 18.0945 7.62471C18.6513 7.71435 19.222 7.64384 19.7403 7.42141L21.0903 6.83078C21.9652 7.83053 22.6385 8.99004 23.0731 10.2454L21.8724 11.128C21.4993 11.4006 21.1958 11.7574 20.9866 12.1693C20.7773 12.5813 20.6683 13.0369 20.6683 13.4989C20.6683 13.961 20.7773 14.4166 20.9866 14.8285C21.1958 15.2405 21.4993 15.5973 21.8724 15.8699L23.0722 16.7558C22.6372 18.0089 21.9655 19.1666 21.0937 20.1663L19.7437 19.5756C19.3212 19.3876 18.8603 19.3023 18.3985 19.3265C17.9367 19.3508 17.4873 19.484 17.0868 19.7152C16.6864 19.9465 16.3464 20.2692 16.0946 20.657C15.8428 21.0448 15.6863 21.4867 15.638 21.9466L15.4751 23.424Z" fill="#1351C1"/>
</svg>
