<svg width="22" height="24" viewBox="0 0 22 24" fill="none" xmlns="http://www.w3.org/2000/svg">
<path d="M4.58333 6.46154C4.58333 8.17524 5.25937 9.81876 6.46273 11.0305C7.66609 12.2423 9.29819 12.9231 11 12.9231C12.7018 12.9231 14.3339 12.2423 15.5373 11.0305C16.7406 9.81876 17.4167 8.17524 17.4167 6.46154C17.4167 4.74783 16.7406 3.10431 15.5373 1.89254C14.3339 0.680767 12.7018 0 11 0C9.29819 0 7.66609 0.680767 6.46273 1.89254C5.25937 3.10431 4.58333 4.74783 4.58333 6.46154ZM20.1667 24H0.916667C0.673552 24 0.440394 23.9027 0.268486 23.7296C0.0965773 23.5565 0 23.3217 0 23.0769V20.3077C0 19.0836 0.482886 17.9097 1.34243 17.0441C2.20197 16.1786 3.36776 15.6923 4.58333 15.6923H17.4167C18.6322 15.6923 19.798 16.1786 20.6576 17.0441C21.5171 17.9097 22 19.0836 22 20.3077V23.0769C22 23.3217 21.9034 23.5565 21.7315 23.7296C21.5596 23.9027 21.3265 24 21.0833 24H20.1667Z" fill="#545454"/>
</svg>
