<svg width="50" height="50" viewBox="0 0 50 50" fill="none" xmlns="http://www.w3.org/2000/svg">
<path d="M23.4375 17.1875C23.4375 16.7731 23.6021 16.3757 23.8951 16.0826C24.1882 15.7896 24.5856 15.625 25 15.625C25.4144 15.625 25.8118 15.7896 26.1049 16.0826C26.3979 16.3757 26.5625 16.7731 26.5625 17.1875V23.4375H32.8125C33.2269 23.4375 33.6243 23.6021 33.9174 23.8951C34.2104 24.1882 34.375 24.5856 34.375 25C34.375 25.4144 34.2104 25.8118 33.9174 26.1049C33.6243 26.3979 33.2269 26.5625 32.8125 26.5625H26.5625V32.8125C26.5625 33.2269 26.3979 33.6243 26.1049 33.9174C25.8118 34.2104 25.4144 34.375 25 34.375C24.5856 34.375 24.1882 34.2104 23.8951 33.9174C23.6021 33.6243 23.4375 33.2269 23.4375 32.8125V26.5625H17.1875C16.7731 26.5625 16.3757 26.3979 16.0826 26.1049C15.7896 25.8118 15.625 25.4144 15.625 25C15.625 24.5856 15.7896 24.1882 16.0826 23.8951C16.3757 23.6021 16.7731 23.4375 17.1875 23.4375H23.4375V17.1875ZM46.875 25C46.875 37.0812 37.0812 46.875 25 46.875C12.9187 46.875 3.125 37.0812 3.125 25C3.125 12.9187 12.9187 3.125 25 3.125C37.0812 3.125 46.875 12.9187 46.875 25ZM43.75 25C43.75 14.6453 35.3547 6.25 25 6.25C14.6453 6.25 6.25 14.6453 6.25 25C6.25 35.3547 14.6453 43.75 25 43.75C35.3547 43.75 43.75 35.3547 43.75 25Z" fill="#17A2B8"/>
</svg>
