<svg width="20" height="20" viewBox="0 0 20 20" fill="none" xmlns="http://www.w3.org/2000/svg">
<path d="M5.87999 2.01509L6.85249 1.72259C7.38523 1.56194 7.95822 1.60061 8.46455 1.83139C8.97087 2.06216 9.37594 2.46927 9.60416 2.97675L10.3558 4.64842C10.552 5.08492 10.6067 5.5719 10.5121 6.04103C10.4175 6.51017 10.1784 6.93791 9.82832 7.26425L8.58332 8.42509C8.54693 8.459 8.52387 8.50482 8.51832 8.55425C8.48166 8.88509 8.70582 9.52925 9.22249 10.4251C9.59832 11.0759 9.93916 11.5334 10.2283 11.7893C10.43 11.9684 10.5408 12.0068 10.5883 11.9934L12.2633 11.4809C12.7207 11.341 13.2105 11.3477 13.6639 11.5002C14.1173 11.6526 14.5117 11.9431 14.7917 12.3309L15.8592 13.8109C16.1838 14.261 16.3341 14.8136 16.2821 15.3661C16.2302 15.9186 15.9795 16.4334 15.5767 16.8151L14.8383 17.5151C14.4465 17.8862 13.9652 18.1495 13.4413 18.2793C12.9175 18.4091 12.369 18.4011 11.8492 18.2559C9.55416 17.6151 7.49666 15.6784 5.65332 12.4859C3.80749 9.28925 3.15999 6.53592 3.75666 4.22509C3.89097 3.70537 4.1569 3.229 4.5288 2.84192C4.90071 2.45483 5.36606 2.17007 5.87999 2.01509ZM6.24082 3.21259C5.93255 3.30546 5.65339 3.47616 5.43022 3.70823C5.20706 3.94029 5.04741 4.22592 4.96666 4.53759C4.46499 6.48092 5.03916 8.92175 6.73582 11.8609C8.42999 14.7959 10.2542 16.5126 12.1858 17.0526C12.4976 17.1394 12.8266 17.1441 13.1407 17.0661C13.4548 16.9881 13.7434 16.8302 13.9783 16.6076L14.7175 15.9076C14.9007 15.7341 15.0146 15.5 15.0382 15.2488C15.0618 14.9976 14.9935 14.7463 14.8458 14.5418L13.7792 13.0626C13.6519 12.8861 13.4725 12.7539 13.2663 12.6845C13.06 12.6152 12.8372 12.6122 12.6292 12.6759L10.95 13.1901C9.97499 13.4801 9.08999 12.6959 8.13999 11.0501C7.49999 9.94175 7.20166 9.08342 7.27582 8.41592C7.31499 8.06925 7.47582 7.74925 7.73082 7.51092L8.97582 6.35009C9.13501 6.20176 9.24375 6.00732 9.2868 5.79405C9.32984 5.58077 9.30502 5.35937 9.21582 5.16092L8.46416 3.48925C8.36042 3.25876 8.17642 3.07385 7.94644 2.96898C7.71646 2.86411 7.4562 2.84643 7.21416 2.91925L6.24082 3.21259Z" fill="white"/>
</svg>
