<svg width="30" height="30" viewBox="0 0 30 30" fill="none" xmlns="http://www.w3.org/2000/svg">
<circle cx="15" cy="15" r="15" fill="#FFB800" fill-opacity="0.2"/>
<path d="M10.4999 20H19.4999C19.6249 19.9998 19.7454 20.0463 19.8377 20.1305C19.9301 20.2147 19.9875 20.3304 19.9988 20.4548C20.0101 20.5793 19.9744 20.7034 19.8987 20.8028C19.823 20.9023 19.7129 20.9697 19.5899 20.992L19.4999 21H10.4999C10.375 21.0002 10.2545 20.9537 10.1622 20.8695C10.0698 20.7853 10.0124 20.6696 10.0011 20.5452C9.98978 20.4207 10.0255 20.2966 10.1012 20.1972C10.1768 20.0977 10.287 20.0303 10.4099 20.008L10.4999 20H19.4999H10.4999ZM14.9099 8.008L14.9999 8C15.117 7.99996 15.2303 8.04097 15.3202 8.11589C15.4101 8.19081 15.4709 8.29489 15.4919 8.41L15.4999 8.5V17.292L18.1819 14.611C18.2647 14.5282 18.3738 14.477 18.4904 14.4664C18.607 14.4558 18.7236 14.4864 18.8199 14.553L18.8899 14.611C18.9726 14.6939 19.0236 14.8031 19.034 14.9197C19.0444 15.0363 19.0136 15.1528 18.9469 15.249L18.8889 15.318L15.3539 18.854C15.2711 18.9367 15.1619 18.9877 15.0453 18.9981C14.9287 19.0085 14.8121 18.9777 14.7159 18.911L14.6459 18.854L11.1109 15.318C11.0224 15.2298 10.97 15.1116 10.9642 14.9868C10.9585 14.8619 10.9997 14.7394 11.0797 14.6434C11.1598 14.5474 11.2729 14.4849 11.3968 14.4682C11.5206 14.4514 11.6463 14.4817 11.7489 14.553L11.8179 14.611L14.4999 17.292V8.5C14.4999 8.38297 14.5409 8.26964 14.6158 8.17974C14.6908 8.08984 14.7948 8.02906 14.9099 8.008L14.9999 8L14.9099 8.008Z" fill="#FFB800"/>
</svg>
