<svg width="16" height="16" viewBox="0 0 16 16" fill="none" xmlns="http://www.w3.org/2000/svg">
<path d="M14.1836 1.27025C12.0743 3.09575 10.2898 4.8335 8.65606 7.10075C7.93557 8.10075 7.13432 9.27775 6.61057 10.389C6.31157 10.9783 5.77257 11.899 5.58882 12.7843C4.58382 11.8493 3.50432 10.788 2.39982 9.95675C1.61257 9.3645 -0.654934 10.572 0.268066 11.2665C1.92232 12.5108 3.29807 14.0605 4.90707 15.3603C5.58007 15.9033 7.07157 14.724 7.42207 14.2293C8.57257 12.5993 8.72981 10.6068 9.56831 8.82875C10.8486 6.1095 13.1191 3.87575 15.3608 1.936C16.8461 0.550754 15.3121 0.295254 14.1858 1.27025" fill="#37B34A"/>
</svg>
