<svg width="15" height="15" viewBox="0 0 15 15" fill="none" xmlns="http://www.w3.org/2000/svg">
<g clip-path="url(#clip0_2_911)">
<path fill-rule="evenodd" clip-rule="evenodd" d="M1 2C0.734784 2 0.48043 2.10536 0.292893 2.29289C0.105357 2.48043 0 2.73478 0 3L0 12C0 12.2652 0.105357 12.5196 0.292893 12.7071C0.48043 12.8946 0.734784 13 1 13H14C14.2652 13 14.5196 12.8946 14.7071 12.7071C14.8946 12.5196 15 12.2652 15 12V3C15 2.73478 14.8946 2.48043 14.7071 2.29289C14.5196 2.10536 14.2652 2 14 2H1ZM1 3H14V3.925C13.9146 3.9249 13.831 3.94918 13.759 3.995L7.5 7.967L1.241 3.995C1.16898 3.94918 1.08536 3.9249 1 3.925V3ZM1 4.908V12H14V4.908L7.741 8.88C7.66893 8.92571 7.58534 8.94998 7.5 8.94998C7.41466 8.94998 7.33107 8.92571 7.259 8.88L1 4.908Z" fill="white"/>
</g>
<defs>
<clipPath id="clip0_2_911">
<rect width="15" height="15" fill="white"/>
</clipPath>
</defs>
</svg>
