<svg width="20" height="20" viewBox="0 0 20 20" fill="none" xmlns="http://www.w3.org/2000/svg">
<path d="M10 1.66675C8.24339 1.66666 6.55772 2.35988 5.30938 3.59574C4.06104 4.8316 3.35091 6.51022 3.33334 8.26675C3.33334 12.8334 9.20834 17.9167 9.45834 18.1334C9.60929 18.2625 9.80138 18.3335 10 18.3335C10.1986 18.3335 10.3907 18.2625 10.5417 18.1334C10.8333 17.9167 16.6667 12.8334 16.6667 8.26675C16.6491 6.51022 15.939 4.8316 14.6906 3.59574C13.4423 2.35988 11.7566 1.66666 10 1.66675ZM10 16.3751C8.60834 15.0501 5.00001 11.3751 5.00001 8.26675C5.00001 6.94066 5.52679 5.6689 6.46448 4.73121C7.40216 3.79353 8.67393 3.26675 10 3.26675C11.3261 3.26675 12.5979 3.79353 13.5355 4.73121C14.4732 5.6689 15 6.94066 15 8.26675C15 11.3501 11.3917 15.0501 10 16.3751Z" fill="white"/>
<path d="M10 5C9.42315 5 8.85924 5.17106 8.3796 5.49155C7.89996 5.81203 7.52612 6.26756 7.30536 6.80051C7.08461 7.33346 7.02685 7.9199 7.13939 8.48568C7.25193 9.05146 7.52971 9.57116 7.93762 9.97906C8.34552 10.387 8.86522 10.6648 9.431 10.7773C9.99678 10.8898 10.5832 10.8321 11.1162 10.6113C11.6491 10.3906 12.1046 10.0167 12.4251 9.53708C12.7456 9.05744 12.9167 8.49353 12.9167 7.91667C12.9167 7.14312 12.6094 6.40125 12.0624 5.85427C11.5154 5.30729 10.7736 5 10 5ZM10 9.16667C9.75279 9.16667 9.51111 9.09336 9.30555 8.956C9.09999 8.81865 8.93977 8.62343 8.84516 8.39502C8.75055 8.16661 8.7258 7.91528 8.77403 7.6728C8.82226 7.43033 8.94131 7.2076 9.11613 7.03278C9.29094 6.85797 9.51367 6.73892 9.75615 6.69068C9.99863 6.64245 10.25 6.66721 10.4784 6.76182C10.7068 6.85643 10.902 7.01664 11.0394 7.2222C11.1767 7.42777 11.25 7.66944 11.25 7.91667C11.25 8.24819 11.1183 8.56613 10.8839 8.80055C10.6495 9.03497 10.3315 9.16667 10 9.16667Z" fill="white"/>
</svg>
