<svg width="44" height="44" viewBox="0 0 44 44" fill="none" xmlns="http://www.w3.org/2000/svg">
<rect width="44" height="44" rx="22" fill="white"/>
<path d="M30.125 16.9668C29.5273 17.2246 28.877 17.4102 28.207 17.4824C28.9026 17.0692 29.4234 16.4164 29.6719 15.6465C29.0192 16.0348 28.3042 16.307 27.5586 16.4512C27.247 16.118 26.8701 15.8526 26.4514 15.6715C26.0327 15.4904 25.5812 15.3974 25.125 15.3984C23.2793 15.3984 21.7949 16.8945 21.7949 18.7305C21.7949 18.9883 21.8262 19.2461 21.877 19.4941C19.1133 19.3496 16.6484 18.0293 15.0098 16.0078C14.7112 16.5178 14.5547 17.0985 14.5566 17.6895C14.5566 18.8457 15.1445 19.8652 16.041 20.4649C15.5127 20.444 14.9968 20.2988 14.5352 20.041V20.082C14.5352 21.7012 15.6797 23.043 17.2051 23.3516C16.9187 23.426 16.624 23.464 16.3281 23.4649C16.1113 23.4649 15.9062 23.4434 15.6992 23.4141C16.1211 24.7344 17.3496 25.6934 18.8125 25.7246C17.668 26.6211 16.2344 27.1484 14.6777 27.1484C14.3984 27.1484 14.1406 27.1387 13.873 27.1074C15.3496 28.0547 17.1016 28.6016 18.9883 28.6016C25.1133 28.6016 28.4648 23.5274 28.4648 19.1231C28.4648 18.9785 28.4648 18.834 28.4551 18.6895C29.1035 18.2149 29.6719 17.627 30.125 16.9668Z" fill="black"/>
</svg>
