<svg width="44" height="44" viewBox="0 0 44 44" fill="none" xmlns="http://www.w3.org/2000/svg">
<rect width="44" height="44" rx="22" fill="white"/>
<g clip-path="url(#clip0_2_930)">
<path d="M24.7257 23.0084C25.1763 23.1502 25.6081 23.346 26.0115 23.5917L25.9857 23.5767C26.4265 23.7726 26.8074 24.0017 27.1549 24.2709L27.1424 24.2617C27.159 24.3126 27.169 24.3701 27.169 24.4309L27.1682 24.4576V24.4567C27.1557 24.8142 27.0765 25.1501 26.9424 25.4559L26.949 25.4384C26.7565 25.8242 26.4357 26.1217 26.0432 26.2801L26.0315 26.2842C25.6254 26.4966 25.1763 26.6137 24.7182 26.6267H24.7132C23.8388 26.5143 22.9938 26.2366 22.2232 25.8084L22.259 25.8267C21.4405 25.4559 20.6962 24.9395 20.0624 24.3026L20.0615 24.3017C19.3702 23.5819 18.7433 22.8028 18.1882 21.9734L18.149 21.9117C17.5981 21.1916 17.2785 20.3214 17.2324 19.4159L17.2315 19.4051V19.3017C17.2437 18.9149 17.3346 18.5347 17.4985 18.1841C17.6624 17.8335 17.8959 17.52 18.1849 17.2626L18.1874 17.2601C18.3658 17.0822 18.6063 16.9804 18.8582 16.9759H18.859C18.9432 16.9784 19.024 16.9851 19.1024 16.9967L19.0915 16.9951C19.164 17.0059 19.2482 17.0126 19.3349 17.0142H19.3374C19.4587 17.0024 19.5804 17.0324 19.6824 17.0992L19.6807 17.0984C19.7699 17.1967 19.8382 17.3159 19.879 17.4467L19.8807 17.4534C19.9496 17.6256 20.0918 18.0045 20.3074 18.5901C20.4199 18.8517 20.5299 19.1742 20.6182 19.5059L20.6299 19.5584C20.5698 19.8484 20.4132 20.1096 20.1857 20.2992L20.1832 20.3009C19.886 20.6153 19.7374 20.8153 19.7374 20.9009C19.7405 20.971 19.764 21.0388 19.8049 21.0959L19.804 21.0951C20.1263 21.7613 20.572 22.3605 21.1174 22.8609L21.1215 22.8651C21.6925 23.3794 22.3326 23.8114 23.0232 24.1484L23.0724 24.1701C23.1568 24.2249 23.2543 24.2562 23.3549 24.2609H23.3565C23.486 24.2609 23.7187 24.052 24.0549 23.6342C24.391 23.2164 24.6143 23.0076 24.7249 23.0076L24.7257 23.0084ZM22.1032 29.8551H22.1215C23.2157 29.8566 24.2983 29.6298 25.2999 29.1892L25.249 29.2092C27.2124 28.3809 28.7432 26.8501 29.5515 24.9392L29.5715 24.8867C29.9799 23.9592 30.2174 22.8776 30.2174 21.7409C30.2174 20.6042 29.9799 19.5226 29.5515 18.5434L29.5715 18.5951C28.7432 16.6317 27.2124 15.1009 25.3015 14.2926L25.249 14.2726C24.3215 13.8642 23.2399 13.6267 22.1032 13.6267C20.9665 13.6267 19.8849 13.8642 18.9057 14.2926L18.9574 14.2726C16.994 15.1009 15.4632 16.6317 14.6549 18.5426L14.6349 18.5951C14.2052 19.5915 13.9853 20.6658 13.989 21.7509C13.9863 23.4666 14.5353 25.1377 15.5549 26.5176L15.539 26.4959L14.5182 29.5067L17.6449 28.5117C18.951 29.3915 20.4909 29.8594 22.0657 29.8551H22.1049H22.1032ZM22.1032 12.0001H22.1307C23.4874 12.0001 24.7774 12.2851 25.9432 12.7992L25.8824 12.7751C28.2365 13.7726 30.0724 15.6084 31.0457 17.8992L31.0699 17.9626C31.5599 19.0767 31.8449 20.3759 31.8449 21.7417C31.8449 23.1076 31.5599 24.4067 31.0457 25.5826L31.0699 25.5209C30.0724 27.8751 28.2365 29.7109 25.9457 30.6842L25.8824 30.7084C24.7765 31.1984 23.4865 31.4834 22.1299 31.4834H22.1015H22.1032H22.059C20.3432 31.4834 18.7324 31.0326 17.339 30.2434L17.3865 30.2684L11.999 32.0001L13.7565 26.7676C12.8391 25.2585 12.3564 23.5253 12.3615 21.7592C12.3615 20.3876 12.6465 19.0826 13.1607 17.9001L13.1365 17.9626C14.134 15.6084 15.9699 13.7726 18.2607 12.7992L18.324 12.7751C19.5076 12.2595 20.7855 11.9956 22.0765 12.0001H22.104H22.1024H22.1032Z" fill="black"/>
</g>
<defs>
<clipPath id="clip0_2_930">
<rect width="20" height="20" fill="white" transform="translate(12 12)"/>
</clipPath>
</defs>
</svg>
